<?xml version="1.0"?>
<svg xmlns="http://www.w3.org/2000/svg" width="512" height="512" viewBox="0 0 128 128"><g><g><rect x="27" y="114.5" width="74" height="11.747" rx="4" fill="#3c3a41"/><rect x="27" y="15.005" width="74" height="11.747" rx="4" fill="#3c3a41"/><path d="M89.75,114.5H38.25V93.9a8,8,0,0,1,8-8h35.5a8,8,0,0,1,8,8Z" fill="#159ce4"/><path d="M64,94.625h0a5.574,5.574,0,0,1,5.574,5.574h0A5.575,5.575,0,0,1,64,105.773h0a5.575,5.575,0,0,1-5.574-5.574h0A5.574,5.574,0,0,1,64,94.625Z" fill="#f5f5f5"/><rect x="47.844" y="73.813" width="32.311" height="12.085" fill="#57555c"/><path d="M89.75,26.752H38.25V65.813a8,8,0,0,0,8,8h35.5a8,8,0,0,0,8-8Z" fill="#f5f5f5"/><path d="M70.287,65.747a1.75,1.75,0,0,0,0-3.5H57.713a1.75,1.75,0,0,0,0,3.5H62.25v8.066h3.5V65.747Z" fill="#e0e0e0"/><path d="M69.362,50.388a5.362,5.362,0,0,1-10.724,0C58.638,47.426,64,37.875,64,37.875S69.362,47.426,69.362,50.388Z" fill="#fd4e26"/><path d="M89.75,15.005H38.25V5.747a4,4,0,0,1,4-4h43.5a4,4,0,0,1,4,4Z" fill="#ff9f22"/><path d="M38.25,104.2h-10a16.019,16.019,0,0,1-16-16V49.875a16.019,16.019,0,0,1,16-16h10v8h-10a8.009,8.009,0,0,0-8,8V88.2a8.009,8.009,0,0,0,8,8h10Z" fill="#57555c"/><path d="M99.745,104.2h-10v-8h10a8.009,8.009,0,0,0,8-8V49.875a8.009,8.009,0,0,0-8-8h-10v-8h10a16.019,16.019,0,0,1,16,16V88.2A16.019,16.019,0,0,1,99.745,104.2Z" fill="#57555c"/></g><g><path d="M64,92.875a7.324,7.324,0,1,0,7.324,7.324A7.332,7.332,0,0,0,64,92.875Zm0,11.148a3.824,3.824,0,1,1,3.824-3.824A3.829,3.829,0,0,1,64,104.023Z"/><path d="M64,57.5a7.12,7.12,0,0,0,7.112-7.112c0-3.255-4.653-11.708-5.586-13.37a1.75,1.75,0,0,0-3.052,1.713c2.133,3.8,5.138,9.931,5.138,11.657a3.612,3.612,0,1,1-7.224,0,1.75,1.75,0,0,0-3.5,0A7.12,7.12,0,0,0,64,57.5Z"/><path d="M115.745,86.449A1.749,1.749,0,0,0,114,88.2a14.267,14.267,0,0,1-14.25,14.25H91.5v-4.5h8.245a9.761,9.761,0,0,0,9.75-9.75V49.875a9.761,9.761,0,0,0-9.75-9.75H91.5v-4.5h8.245A14.267,14.267,0,0,1,114,49.875a1.75,1.75,0,0,0,3.5,0,17.77,17.77,0,0,0-17.75-17.75H91.5V28.5H97a5.757,5.757,0,0,0,5.75-5.75V19A5.757,5.757,0,0,0,97,13.254H91.5V5.747A5.757,5.757,0,0,0,85.75,0H42.25a5.757,5.757,0,0,0-5.75,5.75v7.507H31A5.757,5.757,0,0,0,25.25,19v3.748A5.757,5.757,0,0,0,31,28.5h5.5v3.623H28.255a17.77,17.77,0,0,0-17.75,17.75V88.2a17.771,17.771,0,0,0,17.75,17.75H36.5v6.8H31a5.757,5.757,0,0,0-5.75,5.75v3.747A5.757,5.757,0,0,0,31,128H97a5.757,5.757,0,0,0,5.75-5.75V118.5A5.757,5.757,0,0,0,97,112.75H91.5v-6.8h8.245A17.771,17.771,0,0,0,117.5,88.2,1.749,1.749,0,0,0,115.745,86.449Zm-16-42.824a6.257,6.257,0,0,1,6.25,6.25V88.2a6.257,6.257,0,0,1-6.25,6.25H91.5V93.9a9.758,9.758,0,0,0-9.595-9.743v-8.6A9.758,9.758,0,0,0,91.5,65.813V43.625ZM36.5,93.9v.551H28.255a6.257,6.257,0,0,1-6.25-6.25V49.875a6.257,6.257,0,0,1,6.25-6.25H36.5V65.813A9.758,9.758,0,0,0,46.1,75.555v8.6A9.758,9.758,0,0,0,36.5,93.9ZM49.6,75.563h28.81v8.585H49.6ZM40,5.747A2.253,2.253,0,0,1,42.25,3.5h43.5A2.253,2.253,0,0,1,88,5.747v7.507H40ZM28.75,22.752V19A2.253,2.253,0,0,1,31,16.754H97A2.253,2.253,0,0,1,99.25,19v3.748A2.253,2.253,0,0,1,97,25H31A2.253,2.253,0,0,1,28.75,22.752ZM88,28.5V65.813a6.257,6.257,0,0,1-6.25,6.25h-16V65.747h4.537a1.75,1.75,0,0,0,0-3.5H57.713a1.75,1.75,0,0,0,0,3.5H62.25v6.316h-16A6.257,6.257,0,0,1,40,65.813V28.5ZM28.255,102.449A14.266,14.266,0,0,1,14.005,88.2V49.875a14.266,14.266,0,0,1,14.25-14.25H36.5v4.5H28.255a9.761,9.761,0,0,0-9.75,9.75V88.2a9.761,9.761,0,0,0,9.75,9.75H36.5v4.5Zm71,16.051v3.747A2.253,2.253,0,0,1,97,124.5H31a2.253,2.253,0,0,1-2.25-2.25V118.5A2.253,2.253,0,0,1,31,116.25H97A2.253,2.253,0,0,1,99.25,118.5ZM40,112.75V93.9a6.257,6.257,0,0,1,6.25-6.25h35.5A6.257,6.257,0,0,1,88,93.9V112.75Z"/><path d="M115.745,63.636a1.75,1.75,0,0,0-1.75,1.75v7.3a1.75,1.75,0,0,0,3.5,0v-7.3A1.75,1.75,0,0,0,115.745,63.636Z"/></g></g></svg>
