<?xml version="1.0" encoding="UTF-8"?>
<!DOCTYPE svg PUBLIC "-//W3C//DTD SVG 1.1//EN" "http://www.w3.org/Graphics/SVG/1.1/DTD/svg11.dtd">
<svg version="1.2" width="112.89mm" height="112.89mm" viewBox="0 0 11289 11289" preserveAspectRatio="xMidYMid" fill-rule="evenodd" stroke-width="28.222" stroke-linejoin="round" xmlns="http://www.w3.org/2000/svg" xmlns:ooo="http://xml.openoffice.org/svg/export" xmlns:xlink="http://www.w3.org/1999/xlink" xmlns:presentation="http://sun.com/xmlns/staroffice/presentation" xmlns:smil="http://www.w3.org/2001/SMIL20/" xmlns:anim="urn:oasis:names:tc:opendocument:xmlns:animation:1.0" xml:space="preserve">
 <defs class="ClipPathGroup">
  <clipPath id="presentation_clip_path" clipPathUnits="userSpaceOnUse">
   <rect x="0" y="0" width="11289" height="11289"/>
  </clipPath>
  <clipPath id="presentation_clip_path_shrink" clipPathUnits="userSpaceOnUse">
   <rect x="11" y="11" width="11267" height="11267"/>
  </clipPath>
 </defs>
 <defs class="TextShapeIndex">
  <g ooo:slide="id1" ooo:id-list="id3 id4 id5 id6 id7 id8 id9 id10 id11"/>
 </defs>
 <defs class="EmbeddedBulletChars">
  <g id="bullet-char-template-57356" transform="scale(0.00048828125,-0.00048828125)">
   <path d="M 580,1141 L 1163,571 580,0 -4,571 580,1141 Z"/>
  </g>
  <g id="bullet-char-template-57354" transform="scale(0.00048828125,-0.00048828125)">
   <path d="M 8,1128 L 1137,1128 1137,0 8,0 8,1128 Z"/>
  </g>
  <g id="bullet-char-template-10146" transform="scale(0.00048828125,-0.00048828125)">
   <path d="M 174,0 L 602,739 174,1481 1456,739 174,0 Z M 1358,739 L 309,1346 659,739 1358,739 Z"/>
  </g>
  <g id="bullet-char-template-10132" transform="scale(0.00048828125,-0.00048828125)">
   <path d="M 2015,739 L 1276,0 717,0 1260,543 174,543 174,936 1260,936 717,1481 1274,1481 2015,739 Z"/>
  </g>
  <g id="bullet-char-template-10007" transform="scale(0.00048828125,-0.00048828125)">
   <path d="M 0,-2 C -7,14 -16,27 -25,37 L 356,567 C 262,823 215,952 215,954 215,979 228,992 255,992 264,992 276,990 289,987 310,991 331,999 354,1012 L 381,999 492,748 772,1049 836,1024 860,1049 C 881,1039 901,1025 922,1006 886,937 835,863 770,784 769,783 710,716 594,584 L 774,223 C 774,196 753,168 711,139 L 727,119 C 717,90 699,76 672,76 641,76 570,178 457,381 L 164,-76 C 142,-110 111,-127 72,-127 30,-127 9,-110 8,-76 1,-67 -2,-52 -2,-32 -2,-23 -1,-13 0,-2 Z"/>
  </g>
  <g id="bullet-char-template-10004" transform="scale(0.00048828125,-0.00048828125)">
   <path d="M 285,-33 C 182,-33 111,30 74,156 52,228 41,333 41,471 41,549 55,616 82,672 116,743 169,778 240,778 293,778 328,747 346,684 L 369,508 C 377,444 397,411 428,410 L 1163,1116 C 1174,1127 1196,1133 1229,1133 1271,1133 1292,1118 1292,1087 L 1292,965 C 1292,929 1282,901 1262,881 L 442,47 C 390,-6 338,-33 285,-33 Z"/>
  </g>
  <g id="bullet-char-template-9679" transform="scale(0.00048828125,-0.00048828125)">
   <path d="M 813,0 C 632,0 489,54 383,161 276,268 223,411 223,592 223,773 276,916 383,1023 489,1130 632,1184 813,1184 992,1184 1136,1130 1245,1023 1353,916 1407,772 1407,592 1407,412 1353,268 1245,161 1136,54 992,0 813,0 Z"/>
  </g>
  <g id="bullet-char-template-8226" transform="scale(0.00048828125,-0.00048828125)">
   <path d="M 346,457 C 273,457 209,483 155,535 101,586 74,649 74,723 74,796 101,859 155,911 209,963 273,989 346,989 419,989 480,963 531,910 582,859 608,796 608,723 608,648 583,586 532,535 482,483 420,457 346,457 Z"/>
  </g>
  <g id="bullet-char-template-8211" transform="scale(0.00048828125,-0.00048828125)">
   <path d="M -4,459 L 1135,459 1135,606 -4,606 -4,459 Z"/>
  </g>
  <g id="bullet-char-template-61548" transform="scale(0.00048828125,-0.00048828125)">
   <path d="M 173,740 C 173,903 231,1043 346,1159 462,1274 601,1332 765,1332 928,1332 1067,1274 1183,1159 1299,1043 1357,903 1357,740 1357,577 1299,437 1183,322 1067,206 928,148 765,148 601,148 462,206 346,322 231,437 173,577 173,740 Z"/>
  </g>
 </defs>
 <defs class="TextEmbeddedBitmaps"/>
 <g>
  <g id="id2" class="Master_Slide">
   <g id="bg-id2" class="Background"/>
   <g id="bo-id2" class="BackgroundObjects"/>
  </g>
 </g>
 <g class="SlideGroup">
  <g>
   <g id="container-id1">
    <g id="id1" class="Slide" clip-path="url(#presentation_clip_path)">
     <g class="Page">
      <g class="com.sun.star.drawing.PolyPolygonShape">
       <g id="id3">
        <rect class="BoundingBox" stroke="none" fill="none" x="720" y="816" width="9799" height="9801"/>
       </g>
      </g>
      <g class="com.sun.star.drawing.PolyPolygonShape">
       <g id="id4">
        <rect class="BoundingBox" stroke="none" fill="none" x="2698" y="2698" width="5899" height="5899"/>
       </g>
      </g>
      <g class="com.sun.star.drawing.LineShape">
       <g id="id5">
        <rect class="BoundingBox" stroke="none" fill="none" x="2698" y="2698" width="5898" height="5898"/>
        <path fill="none" stroke="rgb(0,102,179)" stroke-width="353" stroke-linejoin="miter" d="M 2823,8470 L 8470,2823"/>
       </g>
      </g>
      <g class="com.sun.star.drawing.PolyPolygonShape">
       <g id="id6">
        <rect class="BoundingBox" stroke="none" fill="none" x="7937" y="1235" width="2121" height="2121"/>
       </g>
      </g>
      <g class="com.sun.star.drawing.ClosedBezierShape">
       <g id="id7">
        <rect class="BoundingBox" stroke="none" fill="none" x="8100" y="1400" width="1768" height="1768"/>
        <path fill="rgb(255,255,255)" stroke="none" d="M 9866,2283 C 9866,2446 9830,2584 9748,2725 9667,2866 9566,2967 9425,3048 9284,3130 9146,3166 8983,3166 8820,3166 8683,3130 8542,3048 8400,2967 8300,2866 8219,2725 8138,2584 8100,2446 8100,2283 8100,2120 8138,1983 8219,1842 8300,1700 8400,1600 8542,1519 8683,1438 8820,1400 8983,1400 9146,1400 9284,1438 9425,1519 9566,1600 9667,1700 9748,1842 9830,1983 9866,2120 9866,2283 Z"/>
       </g>
      </g>
      <g class="com.sun.star.drawing.ClosedBezierShape">
       <g id="id8">
        <rect class="BoundingBox" stroke="none" fill="none" x="7937" y="1234" width="2121" height="2121"/>
        <path fill="none" stroke="rgb(0,102,179)" stroke-width="353" stroke-linejoin="miter" d="M 9880,2294 C 9880,2457 9844,2595 9762,2736 9681,2877 9580,2978 9439,3059 9298,3141 9160,3177 8997,3177 8834,3177 8697,3141 8556,3059 8414,2978 8314,2877 8233,2736 8152,2595 8114,2457 8114,2294 8114,2131 8152,1994 8233,1853 8314,1711 8414,1611 8556,1530 8697,1449 8834,1411 8997,1411 9160,1411 9298,1449 9439,1530 9580,1611 9681,1711 9762,1853 9844,1994 9880,2131 9880,2294 Z"/>
       </g>
      </g>
      <g class="com.sun.star.drawing.PolyPolygonShape">
       <g id="id9">
        <rect class="BoundingBox" stroke="none" fill="none" x="1235" y="7937" width="2121" height="2121"/>
       </g>
      </g>
      <g class="com.sun.star.drawing.ClosedBezierShape">
       <g id="id10">
        <rect class="BoundingBox" stroke="none" fill="none" x="1411" y="8114" width="1767" height="1767"/>
        <path fill="rgb(255,255,255)" stroke="none" d="M 3177,8997 C 3177,9160 3141,9298 3059,9439 2978,9580 2877,9681 2736,9762 2595,9844 2457,9880 2294,9880 2131,9880 1994,9844 1853,9762 1711,9681 1611,9580 1530,9439 1449,9298 1411,9160 1411,8997 1411,8834 1449,8697 1530,8556 1611,8414 1711,8314 1853,8233 1994,8152 2131,8114 2294,8114 2457,8114 2595,8152 2736,8233 2877,8314 2978,8414 3059,8556 3141,8697 3177,8834 3177,8997 Z"/>
       </g>
      </g>
      <g class="com.sun.star.drawing.ClosedBezierShape">
       <g id="id11">
        <rect class="BoundingBox" stroke="none" fill="none" x="1234" y="7937" width="2121" height="2121"/>
        <path fill="none" stroke="rgb(0,102,179)" stroke-width="353" stroke-linejoin="miter" d="M 3177,8997 C 3177,9160 3141,9298 3059,9439 2978,9580 2877,9681 2736,9762 2595,9844 2457,9880 2294,9880 2131,9880 1994,9844 1853,9762 1711,9681 1611,9580 1530,9439 1449,9298 1411,9160 1411,8997 1411,8834 1449,8697 1530,8556 1611,8414 1711,8314 1853,8233 1994,8152 2131,8114 2294,8114 2457,8114 2595,8152 2736,8233 2877,8314 2978,8414 3059,8556 3141,8697 3177,8834 3177,8997 Z"/>
       </g>
      </g>
     </g>
    </g>
   </g>
  </g>
 </g>
</svg>